<?xml version="1.0" encoding="utf-8"?>
<!-- Generator: Adobe Illustrator 23.0.0, SVG Export Plug-In . SVG Version: 6.00 Build 0)  -->
<svg version="1.1" id="Capa_1" xmlns="http://www.w3.org/2000/svg" xmlns:xlink="http://www.w3.org/1999/xlink" x="0px" y="0px"
	 viewBox="0 0 400 72" style="enable-background:new 0 0 400 72;" xml:space="preserve">
<style type="text/css">
	.st0{enable-background:new    ;}
	.st1{fill:#FFFFFF;}
	.st2{fill:#FF8234;}
</style>
<g class="st0">
	<path class="st1" d="M25.23,22.57H11.32v-8.2H49.2v8.2H35.29v35.27H25.23V22.57z"/>
	<path class="st1" d="M88.26,49.77v8.07H54.6V14.37h32.85v8.07H64.6v9.44h20.18v7.82H64.6v10.06H88.26z"/>
	<path class="st1" d="M135.82,57.84l-0.06-26.08l-12.79,21.49h-4.53l-12.73-20.93v25.52h-9.44V14.37h8.32l16.27,27.01l16.02-27.01
		h8.26l0.12,43.47H135.82z"/>
	<path class="st1" d="M184.41,16.3c2.83,1.28,5.02,3.1,6.55,5.46c1.53,2.36,2.3,5.15,2.3,8.38c0,3.19-0.77,5.97-2.3,8.35
		c-1.53,2.38-3.72,4.2-6.55,5.46c-2.84,1.26-6.18,1.89-10.03,1.89h-8.76v11.99h-10.06V14.37h18.82
		C178.24,14.37,181.58,15.01,184.41,16.3z M180.72,35.7c1.57-1.3,2.36-3.16,2.36-5.56c0-2.44-0.79-4.32-2.36-5.62
		c-1.57-1.3-3.87-1.96-6.89-1.96h-8.2v15.09h8.2C176.85,37.66,179.15,37.01,180.72,35.7z"/>
</g>
<g class="st0">
	<path class="st2" d="M199.72,43.09c-1.16-1.16-1.74-2.61-1.74-4.35c0-1.78,0.58-3.22,1.74-4.32c1.16-1.1,2.59-1.65,4.29-1.65
		c1.7,0,3.13,0.55,4.28,1.65s1.74,2.54,1.74,4.32c0,1.74-0.58,3.19-1.74,4.35c-1.16,1.16-2.59,1.74-4.28,1.74
		C202.31,44.83,200.88,44.25,199.72,43.09z"/>
</g>
<g class="st0">
	<path class="st1" d="M244.99,57.84l-8.38-12.11h-0.5h-8.76v12.11h-10.06V14.37h18.82c3.85,0,7.19,0.64,10.03,1.93
		c2.83,1.28,5.02,3.1,6.55,5.46c1.53,2.36,2.3,5.15,2.3,8.38s-0.78,6.01-2.33,8.35c-1.55,2.34-3.76,4.13-6.61,5.37l9.75,13.97
		H244.99z M242.44,24.52c-1.57-1.3-3.87-1.96-6.89-1.96h-8.2v15.15h8.2c3.02,0,5.32-0.66,6.89-1.99c1.57-1.32,2.36-3.19,2.36-5.59
		C244.8,27.7,244.02,25.83,242.44,24.52z"/>
	<path class="st1" d="M296.59,49.77v8.07h-33.66V14.37h32.85v8.07h-22.85v9.44h20.18v7.82h-20.18v10.06H296.59z"/>
	<path class="st1" d="M344.47,14.37v43.47h-8.26l-21.67-26.39v26.39h-9.94V14.37h8.32l21.61,26.39V14.37H344.47z"/>
	<path class="st1" d="M363.78,22.57h-13.91v-8.2h37.88v8.2h-13.91v35.27h-10.06V22.57z"/>
</g>
</svg>
